# xmcd
#
# Track frame offsets: 
#        150
#        21238
#        40361
#        58612
#        77709
#        98620
#        123677
#        134088
#        155788
#        176584
#
# Disc length: 2622 seconds
#
# Revision: 5
# Processed by: cddbd v1.5.2PL0 Copyright (c) Steve Scherf et al.
# Submitted via: ExactAudioCopy v0.99pb4
#
DISCID=8b0a3c0a
DTITLE=Graveworm - (2005) N-Utopia
DYEAR=2005
DGENRE=Death Metal
TTITLE0=I - The Machine
TTITLE1=(N)Utopia
TTITLE2=Hateful design
TTITLE3=Never enough
TTITLE4=Timeless
TTITLE5=Wich way
TTITLE6=Deep inside
TTITLE7=Outside down
TTITLE8=MCMXCII
TTITLE9=Losing My Religion
EXTD=Lagerplatz: [T5|10]\r\nCover auf Cover_CD 06 YEAR: 2005
EXTT0=
EXTT1=
EXTT2=
EXTT3=
EXTT4=
EXTT5=
EXTT6=
EXTT7=
EXTT8=
EXTT9=
PLAYORDER=
